{
    "asset" : {
        "generator" : "Khronos glTF Blender I/O v1.5.17",
        "version" : "2.0"
    },
    "scene" : 0,
    "scenes" : [
        {
            "name" : "Scene",
            "nodes" : [
                0
            ]
        }
    ],
    "nodes" : [
        {
            "mesh" : 0,
            "name" : "Cube"
        }
    ],
    "animations" : [
        {
            "channels" : [
                {
                    "sampler" : 0,
                    "target" : {
                        "node" : 0,
                        "path" : "translation"
                    }
                },
                {
                    "sampler" : 1,
                    "target" : {
                        "node" : 0,
                        "path" : "rotation"
                    }
                },
                {
                    "sampler" : 2,
                    "target" : {
                        "node" : 0,
                        "path" : "scale"
                    }
                }
            ],
            "name" : "Action",
            "samplers" : [
                {
                    "input" : 6,
                    "interpolation" : "LINEAR",
                    "output" : 7
                },
                {
                    "input" : 6,
                    "interpolation" : "LINEAR",
                    "output" : 8
                },
                {
                    "input" : 6,
                    "interpolation" : "LINEAR",
                    "output" : 9
                }
            ]
        },
        {
            "channels" : [
                {
                    "sampler" : 0,
                    "target" : {
                        "node" : 0,
                        "path" : "weights"
                    }
                }
            ],
            "name" : "KeyAction.001",
            "samplers" : [
                {
                    "input" : 10,
                    "interpolation" : "LINEAR",
                    "output" : 11
                }
            ]
        }
    ],
    "materials" : [
        {
            "doubleSided" : true,
            "name" : "Material",
            "pbrMetallicRoughness" : {
                "baseColorFactor" : [
                    0.8000000715255737,
                    0.003669451456516981,
                    0.008994052186608315,
                    1
                ],
                "metallicFactor" : 0,
                "roughnessFactor" : 0.4000000059604645
            }
        }
    ],
    "meshes" : [
        {
            "extras" : {
                "targetNames" : [
                    "Key 1"
                ]
            },
            "name" : "Cube.001",
            "primitives" : [
                {
                    "attributes" : {
                        "POSITION" : 0,
                        "NORMAL" : 1,
                        "TEXCOORD_0" : 2
                    },
                    "indices" : 3,
                    "material" : 0,
                    "targets" : [
                        {
                            "POSITION" : 4,
                            "NORMAL" : 5
                        }
                    ]
                }
            ],
            "weights" : [
                0
            ]
        }
    ],
    "accessors" : [
        {
            "bufferView" : 0,
            "componentType" : 5126,
            "count" : 11252,
            "max" : [
                1.520448923110962,
                2.5976369380950928,
                0.9696544408798218
            ],
            "min" : [
                -1.520448923110962,
                -1.0985338687896729,
                -0.9696545004844666
            ],
            "type" : "VEC3"
        },
        {
            "bufferView" : 1,
            "componentType" : 5126,
            "count" : 11252,
            "type" : "VEC3"
        },
        {
            "bufferView" : 2,
            "componentType" : 5126,
            "count" : 11252,
            "type" : "VEC2"
        },
        {
            "bufferView" : 3,
            "componentType" : 5123,
            "count" : 59136,
            "type" : "SCALAR"
        },
        {
            "bufferView" : 4,
            "componentType" : 5126,
            "count" : 11252,
            "max" : [
                0.5847346782684326,
                0.4918088912963867,
                0.2881714701652527
            ],
            "min" : [
                -0.5847346782684326,
                -0.7370071411132812,
                -0.2881714701652527
            ],
            "type" : "VEC3"
        },
        {
            "bufferView" : 5,
            "componentType" : 5126,
            "count" : 11252,
            "type" : "VEC3"
        },
        {
            "bufferView" : 6,
            "componentType" : 5126,
            "count" : 59,
            "max" : [
                2.4583333333333335
            ],
            "min" : [
                0.041666666666666664
            ],
            "type" : "SCALAR"
        },
        {
            "bufferView" : 7,
            "componentType" : 5126,
            "count" : 59,
            "type" : "VEC3"
        },
        {
            "bufferView" : 8,
            "componentType" : 5126,
            "count" : 59,
            "type" : "VEC4"
        },
        {
            "bufferView" : 9,
            "componentType" : 5126,
            "count" : 59,
            "type" : "VEC3"
        },
        {
            "bufferView" : 10,
            "componentType" : 5126,
            "count" : 61,
            "max" : [
                2.5
            ],
            "min" : [
                0
            ],
            "type" : "SCALAR"
        },
        {
            "bufferView" : 11,
            "componentType" : 5126,
            "count" : 61,
            "type" : "SCALAR"
        }
    ],
    "bufferViews" : [
        {
            "buffer" : 0,
            "byteLength" : 135024,
            "byteOffset" : 0
        },
        {
            "buffer" : 0,
            "byteLength" : 135024,
            "byteOffset" : 135024
        },
        {
            "buffer" : 0,
            "byteLength" : 90016,
            "byteOffset" : 270048
        },
        {
            "buffer" : 0,
            "byteLength" : 118272,
            "byteOffset" : 360064
        },
        {
            "buffer" : 0,
            "byteLength" : 135024,
            "byteOffset" : 478336
        },
        {
            "buffer" : 0,
            "byteLength" : 135024,
            "byteOffset" : 613360
        },
        {
            "buffer" : 0,
            "byteLength" : 236,
            "byteOffset" : 748384
        },
        {
            "buffer" : 0,
            "byteLength" : 708,
            "byteOffset" : 748620
        },
        {
            "buffer" : 0,
            "byteLength" : 944,
            "byteOffset" : 749328
        },
        {
            "buffer" : 0,
            "byteLength" : 708,
            "byteOffset" : 750272
        },
        {
            "buffer" : 0,
            "byteLength" : 244,
            "byteOffset" : 750980
        },
        {
            "buffer" : 0,
            "byteLength" : 244,
            "byteOffset" : 751224
        }
    ],
    "buffers" : [
        {
            "byteLength" : 751468,
            "uri" : "heart.bin"
        }
    ]
}
