{
  "buffers": [
    {
      "uri": "DRAGONHEART12.bin",
      "byteLength": 154320
    },
    {
      "byteLength": 481948,
      "extensions": {
        "EXT_meshopt_compression": {
          "fallback": true
        }
      }
    }
  ],
  "asset": {
    "version": "2.0",
    "generator": "gltfpack 0.16"
  },
  "extensionsUsed": [
    "KHR_mesh_quantization",
    "EXT_meshopt_compression",
    "KHR_texture_transform"
  ],
  "extensionsRequired": [
    "KHR_mesh_quantization",
    "EXT_meshopt_compression"
  ],
  "bufferViews": [
    {
      "buffer": 1,
      "byteOffset": 0,
      "byteLength": 272016,
      "byteStride": 8,
      "target": 34962,
      "extensions": {
        "EXT_meshopt_compression": {
          "buffer": 0,
          "byteOffset": 0,
          "byteLength": 71998,
          "byteStride": 8,
          "mode": "ATTRIBUTES",
          "count": 34002
        }
      }
    },
    {
      "buffer": 1,
      "byteOffset": 272016,
      "byteLength": 45336,
      "byteStride": 4,
      "target": 34962,
      "extensions": {
        "EXT_meshopt_compression": {
          "buffer": 0,
          "byteOffset": 72000,
          "byteLength": 33367,
          "byteStride": 4,
          "mode": "ATTRIBUTES",
          "count": 11334
        }
      }
    },
    {
      "buffer": 1,
      "byteOffset": 317352,
      "byteLength": 45336,
      "byteStride": 4,
      "target": 34962,
      "extensions": {
        "EXT_meshopt_compression": {
          "buffer": 0,
          "byteOffset": 105368,
          "byteLength": 25484,
          "byteStride": 4,
          "mode": "ATTRIBUTES",
          "count": 11334
        }
      }
    },
    {
      "buffer": 1,
      "byteOffset": 362688,
      "byteLength": 119136,
      "target": 34963,
      "extensions": {
        "EXT_meshopt_compression": {
          "buffer": 0,
          "byteOffset": 130852,
          "byteLength": 23263,
          "byteStride": 2,
          "mode": "TRIANGLES",
          "count": 59568
        }
      }
    },
    {
      "buffer": 1,
      "byteOffset": 481824,
      "byteLength": 124,
      "extensions": {
        "EXT_meshopt_compression": {
          "buffer": 0,
          "byteOffset": 154116,
          "byteLength": 138,
          "byteStride": 4,
          "mode": "ATTRIBUTES",
          "count": 31
        }
      }
    },
    {
      "buffer": 0,
      "byteOffset": 154256,
      "byteLength": 62
    }
  ],
  "accessors": [
    {
      "bufferView": 0,
      "byteOffset": 0,
      "componentType": 5123,
      "count": 11334,
      "type": "VEC3",
      "min": [
        806,
        939,
        475
      ],
      "max": [
        12972,
        13586,
        15908
      ]
    },
    {
      "bufferView": 1,
      "byteOffset": 0,
      "componentType": 5120,
      "count": 11334,
      "type": "VEC3",
      "normalized": true
    },
    {
      "bufferView": 2,
      "byteOffset": 0,
      "componentType": 5123,
      "count": 11334,
      "type": "VEC2"
    },
    {
      "bufferView": 0,
      "byteOffset": 90672,
      "componentType": 5122,
      "count": 11334,
      "type": "VEC3",
      "min": [
        -469,
        -501,
        -114
      ],
      "max": [
        458,
        523,
        282
      ]
    },
    {
      "bufferView": 0,
      "byteOffset": 181344,
      "componentType": 5122,
      "count": 11334,
      "type": "VEC3",
      "min": [
        -806,
        -621,
        -95
      ],
      "max": [
        516,
        939,
        475
      ]
    },
    {
      "bufferView": 3,
      "byteOffset": 0,
      "componentType": 5123,
      "count": 59568,
      "type": "SCALAR"
    },
    {
      "bufferView": 4,
      "byteOffset": 0,
      "componentType": 5126,
      "count": 31,
      "type": "SCALAR",
      "min": [
        0
      ],
      "max": [
        1
      ]
    },
    {
      "bufferView": 5,
      "byteOffset": 0,
      "componentType": 5121,
      "count": 62,
      "type": "SCALAR",
      "normalized": true
    }
  ],
  "images": [
    {
      "uri": "Low_rez_heart_normal-resized.jpg"
    },
    {
      "uri": "Low_rez_heart_albedo.jpg"
    },
    {
      "uri": "Low_rez_heart_roughnessLow_rez_heart_metallic-resized.jpg"
    }
  ],
  "textures": [
    {
      "source": 0
    },
    {
      "source": 1
    },
    {
      "source": 2
    }
  ],
  "materials": [
    {
      "name": "Material #26",
      "pbrMetallicRoughness": {
        "baseColorTexture": {
          "index": 1,
          "texCoord": 0,
          "extensions": {
            "KHR_texture_transform": {
              "offset": [
                0.00194999995,
                0.00195997953
              ],
              "scale": [
                0.000229807076,
                0.00024324542
              ]
            }
          }
        },
        "metallicRoughnessTexture": {
          "index": 2,
          "texCoord": 0,
          "extensions": {
            "KHR_texture_transform": {
              "offset": [
                0.00194999995,
                0.00195997953
              ],
              "scale": [
                0.000229807076,
                0.00024324542
              ]
            }
          }
        }
      },
      "normalTexture": {
        "index": 0,
        "texCoord": 0,
        "scale": 0.300000012,
        "extensions": {
          "KHR_texture_transform": {
            "offset": [
              0.00194999995,
              0.00195997953
            ],
            "scale": [
              0.000229807076,
              0.00024324542
            ]
          }
        }
      }
    }
  ],
  "meshes": [
    {
      "primitives": [
        {
          "attributes": {
            "POSITION": 0,
            "NORMAL": 1,
            "TEXCOORD_0": 2
          },
          "mode": 4,
          "targets": [
            {
              "POSITION": 3
            },
            {
              "POSITION": 4
            }
          ],
          "indices": 5,
          "material": 0
        }
      ],
      "weights": [
        0,
        0
      ],
      "extras": {
        "targetNames": [
          "heart002",
          "heart004"
        ]
      }
    }
  ],
  "animations": [
    {
      "name": "All Animations",
      "samplers": [
        {
          "input": 6,
          "output": 7
        }
      ],
      "channels": [
        {
          "sampler": 0,
          "target": {
            "node": 0,
            "path": "weights"
          }
        }
      ]
    }
  ],
  "nodes": [
    {
      "mesh": 0,
      "translation": [
        -0.0400481746,
        -0.140210286,
        -1.43561602
      ],
      "scale": [
        0.00000784276745,
        0.00000784276745,
        0.00000784276745
      ]
    },
    {
      "name": "heart",
      "rotation": [
        0.707106829,
        0,
        0,
        0.707106709
      ],
      "children": [
        0
      ]
    }
  ],
  "scenes": [
    {
      "nodes": [
        1
      ]
    }
  ],
  "scene": 0
}